<svg width="25" height="24" viewBox="0 0 25 24" fill="none" xmlns="http://www.w3.org/2000/svg">
<g clip-path="url(#clip0_1427_5222)">
<path d="M19.2478 24C17.7961 24 16.559 23.4883 15.5366 22.4648C14.5142 21.4414 14.0029 20.2031 14.0029 18.75C14.0029 17.2969 14.5142 16.0586 15.5366 15.0352C16.559 14.0117 17.7961 13.5 19.2478 13.5C20.6995 13.5 21.9366 14.0117 22.959 15.0352C23.9815 16.0586 24.4927 17.2969 24.4927 18.75C24.4927 20.2031 23.9815 21.4414 22.959 22.4648C21.9366 23.4883 20.6995 24 19.2478 24ZM22.2449 18H19.9971V15.75C19.9971 15.5469 19.9229 15.3711 19.7747 15.2227C19.6264 15.0742 19.4507 15 19.2478 15C19.0449 15 18.8693 15.0742 18.721 15.2227C18.5727 15.3711 18.4986 15.5469 18.4986 15.75V18.75C18.4986 18.9375 18.5571 19.0977 18.6742 19.2305C18.7912 19.3633 18.9356 19.4453 19.1073 19.4766C19.1386 19.4922 19.1854 19.5 19.2478 19.5H22.2449C22.4478 19.5 22.6234 19.4258 22.7717 19.2773C22.92 19.1289 22.9942 18.9531 22.9942 18.75C22.9942 18.5469 22.92 18.3711 22.7717 18.2227C22.6234 18.0742 22.4478 18 22.2449 18ZM11.7551 19.5H7.25953C7.0566 19.5 6.88099 19.4258 6.7327 19.2773C6.58441 19.1289 6.51026 18.9531 6.51026 18.75C6.51026 18.5469 6.58441 18.3711 6.7327 18.2227C6.88099 18.0742 7.0566 18 7.25953 18H11.7551C11.9581 18 12.1337 18.0742 12.282 18.2227C12.4303 18.3711 12.5044 18.5469 12.5044 18.75C12.5044 18.9531 12.4303 19.1289 12.282 19.2773C12.1337 19.4258 11.9581 19.5 11.7551 19.5ZM7.25953 15H11.7551C11.9581 15 12.1337 15.0742 12.282 15.2227C12.4303 15.3711 12.5044 15.5469 12.5044 15.75C12.5044 15.9531 12.4303 16.1289 12.282 16.2773C12.1337 16.4258 11.9581 16.5 11.7551 16.5H7.25953C7.0566 16.5 6.88099 16.4258 6.7327 16.2773C6.58441 16.1289 6.51026 15.9531 6.51026 15.75C6.51026 15.5469 6.58441 15.3711 6.7327 15.2227C6.88099 15.0742 7.0566 15 7.25953 15ZM14.7522 13.5H7.25953C7.0566 13.5 6.88099 13.4258 6.7327 13.2773C6.58441 13.1289 6.51026 12.9531 6.51026 12.75C6.51026 12.5469 6.58441 12.3711 6.7327 12.2227C6.88099 12.0742 7.0566 12 7.25953 12H14.7522C14.9551 12 15.1307 12.0742 15.279 12.2227C15.4273 12.3711 15.5015 12.5469 15.5015 12.75C15.5015 12.9531 15.4273 13.1289 15.279 13.2773C15.1307 13.4258 14.9551 13.5 14.7522 13.5ZM17.7493 10.5H7.25953C7.0566 10.5 6.88099 10.4258 6.7327 10.2773C6.58441 10.1289 6.51026 9.95312 6.51026 9.75C6.51026 9.54688 6.58441 9.37109 6.7327 9.22266C6.88099 9.07422 7.0566 9 7.25953 9H17.7493C17.9522 9 18.1278 9.07422 18.2761 9.22266C18.4244 9.37109 18.4986 9.54688 18.4986 9.75C18.4986 9.95312 18.4244 10.1289 18.2761 10.2773C18.1278 10.4258 17.9522 10.5 17.7493 10.5ZM17.7493 4.5H7.25953C7.0566 4.5 6.88099 4.42578 6.7327 4.27734C6.58441 4.12891 6.51026 3.95312 6.51026 3.75C6.51026 3.54688 6.58441 3.37109 6.7327 3.22266C6.88099 3.07422 7.0566 3 7.25953 3H17.7493C17.9522 3 18.1278 3.07422 18.2761 3.22266C18.4244 3.37109 18.4986 3.54688 18.4986 3.75C18.4986 3.95312 18.4244 4.12891 18.2761 4.27734C18.1278 4.42578 17.9522 4.5 17.7493 4.5ZM17.7493 7.5H7.25953C7.0566 7.5 6.88099 7.42578 6.7327 7.27734C6.58441 7.12891 6.51026 6.95312 6.51026 6.75C6.51026 6.54688 6.58441 6.37109 6.7327 6.22266C6.88099 6.07422 7.0566 6 7.25953 6H17.7493C17.9522 6 18.1278 6.07422 18.2761 6.22266C18.4244 6.37109 18.4986 6.54688 18.4986 6.75C18.4986 6.95312 18.4244 7.12891 18.2761 7.27734C18.1278 7.42578 17.9522 7.5 17.7493 7.5ZM19.9971 2.25C19.9971 2.04688 19.9229 1.87109 19.7747 1.72266C19.6264 1.57422 19.4507 1.5 19.2478 1.5H4.26245C4.05953 1.5 3.88392 1.57422 3.73563 1.72266C3.58733 1.87109 3.51319 2.04688 3.51319 2.25V3C3.93465 3 4.28977 3.14453 4.57855 3.43359C4.86733 3.72266 5.01172 4.07812 5.01172 4.5C5.01172 4.92188 4.86733 5.27734 4.57855 5.56641C4.28977 5.85547 3.93465 6 3.51319 6V7.5C3.93465 7.5 4.28977 7.64453 4.57855 7.93359C4.86733 8.22266 5.01172 8.57812 5.01172 9C5.01172 9.42188 4.86733 9.77734 4.57855 10.0664C4.28977 10.3555 3.93465 10.5 3.51319 10.5V12C3.93465 12 4.28977 12.1445 4.57855 12.4336C4.86733 12.7227 5.01172 13.0742 5.01172 13.4883C5.01172 13.9023 4.86733 14.2578 4.57855 14.5547C4.28977 14.8516 3.93465 15 3.51319 15V16.5C3.93465 16.5 4.28977 16.6445 4.57855 16.9336C4.86733 17.2227 5.01172 17.5742 5.01172 17.9883C5.01172 18.4023 4.86733 18.7578 4.57855 19.0547C4.28977 19.3516 3.93465 19.5 3.51319 19.5V20.25C3.51319 20.4531 3.58733 20.6289 3.73563 20.7773C3.88392 20.9258 4.05953 21 4.26245 21H14.0029V22.5H3.51319C3.10733 22.5 2.75611 22.3516 2.45953 22.0547C2.16294 21.7578 2.01465 21.4062 2.01465 21V19.5C1.6088 19.5 1.25758 19.3516 0.960991 19.0547C0.664406 18.7578 0.516113 18.4023 0.516113 17.9883C0.516113 17.5742 0.664406 17.2227 0.960991 16.9336C1.25758 16.6445 1.6088 16.5 2.01465 16.5V15C1.6088 15 1.25758 14.8516 0.960991 14.5547C0.664406 14.2578 0.516113 13.9023 0.516113 13.4883C0.516113 13.0742 0.664406 12.7227 0.960991 12.4336C1.25758 12.1445 1.6088 12 2.01465 12V10.5C1.6088 10.5 1.25758 10.3555 0.960991 10.0664C0.664406 9.77734 0.516113 9.42188 0.516113 9C0.516113 8.57812 0.664406 8.22266 0.960991 7.93359C1.25758 7.64453 1.6088 7.5 2.01465 7.5V6C1.6088 6 1.25758 5.85547 0.960991 5.56641C0.664406 5.27734 0.516113 4.92188 0.516113 4.5C0.516113 4.07812 0.664406 3.72266 0.960991 3.43359C1.25758 3.14453 1.6088 3 2.01465 3V1.5C2.01465 1.07812 2.16294 0.722656 2.45953 0.433594C2.75611 0.144531 3.10733 0 3.51319 0H19.9971C20.4029 0 20.7542 0.144531 21.0507 0.433594C21.3473 0.722656 21.4956 1.07812 21.4956 1.5V12H19.9971V2.25Z" fill="white"/>
</g>
<defs>
<clipPath id="clip0_1427_5222">
<rect width="24" height="24" fill="white" transform="translate(0.5)"/>
</clipPath>
</defs>
</svg>
