<svg width="24" height="24" viewBox="0 0 24 24" fill="none" xmlns="http://www.w3.org/2000/svg">
<path d="M9 0.416661C9.14642 0.59458 9.23612 0.812319 9.25751 1.04174C9.2789 1.27117 9.231 1.50174 9.12 1.70366C8.25279 3.29587 7.7999 5.0806 7.803 6.89366C7.803 12.9252 12.72 17.8092 18.78 17.8092C19.5705 17.8092 20.34 17.7267 21.0795 17.5692C21.3062 17.5201 21.5423 17.5388 21.7584 17.6231C21.9745 17.7074 22.1609 17.8535 22.2945 18.0432C22.4355 18.2403 22.5074 18.4786 22.499 18.7208C22.4905 18.9631 22.4023 19.1957 22.248 19.3827C21.0715 20.8278 19.5874 21.9922 17.9038 22.7909C16.2201 23.5897 14.3795 24.0026 12.516 23.9997C5.601 23.9997 0 18.4287 0 11.5647C0 6.39866 3.171 1.96766 7.686 0.089661C7.91091 -0.00539125 8.16058 -0.0249003 8.39752 0.0340645C8.63447 0.0930292 8.84588 0.227284 9 0.416661ZM7.287 1.96616C5.55091 2.8974 4.09955 4.28162 3.0872 5.9717C2.07484 7.66178 1.5393 9.59458 1.5375 11.5647C1.5375 17.5947 6.456 22.4787 12.516 22.4787C13.9672 22.4812 15.4044 22.1958 16.7446 21.6392C18.0847 21.0825 19.3012 20.2656 20.3235 19.2357C19.818 19.2987 19.3035 19.3302 18.78 19.3302C11.865 19.3302 6.2655 13.7592 6.2655 6.89516C6.2655 5.14466 6.6285 3.47816 7.287 1.96616Z" fill="#5D7993"/>
<path d="M16.1922 4.72204C16.2137 4.65709 16.2551 4.60056 16.3106 4.56049C16.3661 4.52043 16.4328 4.49886 16.5012 4.49886C16.5696 4.49886 16.6363 4.52043 16.6918 4.56049C16.7472 4.60056 16.7887 4.65709 16.8102 4.72204L17.3907 6.46504C17.6502 7.24204 18.2592 7.85105 19.0362 8.11055L20.7792 8.69104C20.8441 8.71255 20.9007 8.75399 20.9407 8.80946C20.9808 8.86493 21.0024 8.93162 21.0024 9.00004C21.0024 9.06847 20.9808 9.13516 20.9407 9.19063C20.9007 9.2461 20.8441 9.28753 20.7792 9.30904L19.0362 9.88954C18.653 10.0172 18.3048 10.2324 18.0191 10.518C17.7335 10.8036 17.5184 11.1518 17.3907 11.535L16.8102 13.278C16.7887 13.343 16.7472 13.3995 16.6918 13.4396C16.6363 13.4797 16.5696 13.5012 16.5012 13.5012C16.4328 13.5012 16.3661 13.4797 16.3106 13.4396C16.2551 13.3995 16.2137 13.343 16.1922 13.278L15.6117 11.535C15.484 11.1518 15.2688 10.8036 14.9832 10.518C14.6976 10.2324 14.3494 10.0172 13.9662 9.88954L12.2232 9.30904C12.1582 9.28753 12.1017 9.2461 12.0616 9.19063C12.0216 9.13516 12 9.06847 12 9.00004C12 8.93162 12.0216 8.86493 12.0616 8.80946C12.1017 8.75399 12.1582 8.71255 12.2232 8.69104L13.9662 8.11055C14.3494 7.98287 14.6976 7.7677 14.9832 7.48208C15.2688 7.19647 15.484 6.84826 15.6117 6.46504L16.1922 4.72204ZM20.7957 0.148545C20.8105 0.105834 20.8382 0.0687986 20.8751 0.0425871C20.9119 0.0163756 20.956 0.00229073 21.0012 0.00229073C21.0464 0.00229073 21.0905 0.0163756 21.1273 0.0425871C21.1641 0.0687986 21.1919 0.105834 21.2067 0.148545L21.5937 1.30954C21.7662 1.82854 22.1727 2.23504 22.6917 2.40754L23.8527 2.79454C23.8954 2.80935 23.9324 2.8371 23.9586 2.87393C23.9849 2.91076 23.9989 2.95484 23.9989 3.00004C23.9989 3.04525 23.9849 3.08933 23.9586 3.12616C23.9324 3.16299 23.8954 3.19074 23.8527 3.20554L22.6917 3.59254C22.4359 3.67763 22.2035 3.82117 22.0129 4.01177C21.8223 4.20237 21.6788 4.43478 21.5937 4.69055L21.2067 5.85154C21.1919 5.89426 21.1641 5.93129 21.1273 5.9575C21.0905 5.98371 21.0464 5.9978 21.0012 5.9978C20.956 5.9978 20.9119 5.98371 20.8751 5.9575C20.8382 5.93129 20.8105 5.89426 20.7957 5.85154L20.4087 4.69055C20.3236 4.43478 20.1801 4.20237 19.9895 4.01177C19.7989 3.82117 19.5664 3.67763 19.3107 3.59254L18.1497 3.20554C18.107 3.19074 18.0699 3.16299 18.0437 3.12616C18.0175 3.08933 18.0034 3.04525 18.0034 3.00004C18.0034 2.95484 18.0175 2.91076 18.0437 2.87393C18.0699 2.8371 18.107 2.80935 18.1497 2.79454L19.3107 2.40754C19.8297 2.23504 20.2362 1.82854 20.4087 1.30954L20.7957 0.150045V0.148545Z" fill="#5D7993"/>
</svg>
