<svg width="26" height="26" viewBox="0 0 26 26" fill="none" xmlns="http://www.w3.org/2000/svg">
<path d="M17.2545 17.254C16.1751 18.3334 14.6513 19.0318 13.0005 19.0318C11.3497 19.0318 9.8259 18.3651 8.74654 17.254C7.66717 16.1746 6.96875 14.6508 6.96875 13C6.96875 11.3492 7.66717 9.82539 8.74654 8.74603C9.8259 7.66666 11.3497 6.96824 13.0005 6.96824C14.6513 6.96824 16.1751 7.63491 17.2545 8.74603C18.3339 9.82539 19.0323 11.3492 19.0323 13C19.0323 14.6508 18.3656 16.1746 17.2545 17.254ZM16.1116 9.88889C15.318 9.09523 14.2069 8.61904 13.0005 8.61904C11.7942 8.61904 10.6831 9.09523 9.8894 9.88889C9.09574 10.6825 8.61955 11.7937 8.61955 13C8.61955 14.2064 9.09574 15.3175 9.8894 16.1111C10.6831 16.9048 11.7942 17.381 13.0005 17.381C14.2069 17.381 15.318 16.9048 16.1116 16.1111C16.9053 15.3175 17.3815 14.2064 17.3815 13C17.3815 11.7937 16.9053 10.6825 16.1116 9.88889Z" fill="white" stroke="white" stroke-width="0.2"/>
<path d="M24.1742 13.8255H21.7297C21.2853 13.8255 20.9043 13.4445 20.9043 13.0001C20.9043 12.5556 21.2853 12.1747 21.7297 12.1747H24.1742C24.6186 12.1747 24.9996 12.5556 24.9996 13.0001C24.9996 13.4445 24.6186 13.8255 24.1742 13.8255Z" fill="white" stroke="white" stroke-width="0.5"/>
<path d="M12.9992 5.09526C12.5548 5.09526 12.1738 4.7143 12.1738 4.26986V1.8254C12.1738 1.38095 12.5548 1 12.9992 1C13.4437 1 13.8246 1.38095 13.8246 1.8254V4.26986C13.8246 4.7143 13.4437 5.09526 12.9992 5.09526Z" fill="white" stroke="white" stroke-width="0.5"/>
<path d="M21.4766 5.66666L19.7306 7.4127C19.4449 7.73016 18.9052 7.73016 18.5877 7.4127C18.2702 7.09524 18.2702 6.5873 18.5877 6.26984L20.3337 4.5238C20.6512 4.20634 21.1591 4.20634 21.4766 4.5238C21.7941 4.84126 21.7941 5.3492 21.4766 5.66666Z" fill="white" stroke="white" stroke-width="0.5"/>
<path d="M12.9992 25C12.5548 25 12.1738 24.6191 12.1738 24.1746V21.7302C12.1738 21.2857 12.5548 20.9048 12.9992 20.9048C13.4437 20.9048 13.8246 21.2857 13.8246 21.7302V24.1746C13.8246 24.6191 13.4437 25 12.9992 25Z" fill="white" stroke="white" stroke-width="0.5"/>
<path d="M21.5079 21.4763C21.1904 21.7938 20.6825 21.7938 20.365 21.4763L18.619 19.7303C18.3015 19.4128 18.3015 18.9049 18.619 18.5874C18.9047 18.2699 19.4444 18.2699 19.7618 18.5874L21.5079 20.3334C21.8253 20.6509 21.8253 21.1588 21.5079 21.4763Z" fill="white" stroke="white" stroke-width="0.5"/>
<path d="M4.26985 13.8255H1.8254C1.38095 13.8255 1 13.4445 1 13.0001C1 12.5556 1.34921 12.1747 1.8254 12.1747H4.26985C4.7143 12.1747 5.09525 12.5556 5.09525 13.0001C5.09525 13.4445 4.7143 13.8255 4.26985 13.8255Z" fill="white" stroke="white" stroke-width="0.5"/>
<path d="M7.3809 7.4127C7.09519 7.73016 6.5555 7.73016 6.23804 7.4127L4.492 5.66666C4.17454 5.3492 4.17454 4.84126 4.492 4.5238C4.80946 4.20634 5.3174 4.20634 5.63486 4.5238L7.3809 6.26984C7.69836 6.5873 7.69836 7.09524 7.3809 7.4127Z" fill="white" stroke="white" stroke-width="0.5"/>
<path d="M7.3809 19.7303L5.63486 21.4763C5.3174 21.7938 4.80946 21.7938 4.492 21.4763C4.17454 21.1588 4.17454 20.6509 4.492 20.3334L6.23804 18.5874C6.5555 18.2699 7.06344 18.2699 7.3809 18.5874C7.69836 18.9049 7.69836 19.4128 7.3809 19.7303Z" fill="white" stroke="white" stroke-width="0.5"/>
</svg>
