<svg width="174" height="45" viewBox="0 0 174 45" fill="none" xmlns="http://www.w3.org/2000/svg">
<path d="M85.3285 30.9739L85.3051 19.0268L79.3867 28.9827H78.3106L72.3922 19.0971V30.9739H70.1465V14.576H72.0647L78.8954 26.1014L85.6326 14.576H87.5508L87.5742 30.9739H85.3285Z" fill="#252525"/>
<path d="M104.372 28.9359V30.9739H92.4885V14.576H104.045V16.614H94.8278V21.6505H103.039V23.6417H94.8278V28.9359H104.372Z" fill="#252525"/>
<path d="M108.16 14.576H115.061C116.792 14.576 118.328 14.9196 119.669 15.6067C121.01 16.2939 122.048 17.2621 122.781 18.5115C123.529 19.7452 123.903 21.1664 123.903 22.7749C123.903 24.3835 123.529 25.8124 122.781 27.0618C122.048 28.2956 121.01 29.256 119.669 29.9432C118.328 30.6303 116.792 30.9739 115.061 30.9739H108.16V14.576ZM114.92 28.9359C116.246 28.9359 117.408 28.6782 118.406 28.1628C119.42 27.6474 120.199 26.9291 120.745 26.0077C121.291 25.0706 121.564 23.9931 121.564 22.7749C121.564 21.5568 121.291 20.487 120.745 19.5656C120.199 18.6286 119.42 17.9024 118.406 17.3871C117.408 16.8717 116.246 16.614 114.92 16.614H110.499V28.9359H114.92Z" fill="#252525"/>
<path d="M139.37 28.9359V30.9739H127.486V14.576H139.043V16.614H129.826V21.6505H138.037V23.6417H129.826V28.9359H139.37Z" fill="#252525"/>
<path d="M148.491 23.6885L145.497 26.7339V30.9739H143.158V14.576H145.497V23.7354L154.387 14.576H157.053L150.059 21.955L157.498 30.9739H154.761L148.491 23.6885Z" fill="#252525"/>
<path d="M169.742 26.8744H161.04L159.239 30.9739H156.829L164.245 14.576H166.561L174 30.9739H171.544L169.742 26.8744ZM168.924 25.0004L165.391 16.9654L161.859 25.0004H168.924Z" fill="#252525"/>
<path fill-rule="evenodd" clip-rule="evenodd" d="M57.6158 22.1821C57.6158 34.4329 44.7181 44.3642 28.8079 44.3642C12.8977 44.3642 0 34.4329 0 22.1821C0 9.93126 12.8977 0 28.8079 0C44.7181 0 57.6158 9.93126 57.6158 22.1821ZM34.4306 41.035C32.6363 41.3277 30.7573 41.4834 28.8079 41.4834C26.8337 41.4834 24.9316 41.3237 23.1167 41.0237C25.6865 38.4284 27.6133 35.6103 28.7681 32.8664C29.9244 35.6143 31.8552 38.4365 34.4306 41.035ZM37.831 40.292C34.8516 37.6324 32.6994 34.6866 31.5013 31.9314C29.9437 28.3492 30.1747 25.6152 31.369 23.9544C32.5633 22.2935 35.0816 21.2042 38.9732 21.5406C42.7946 21.8708 47.4056 23.5765 51.7813 26.723C52.3726 27.1482 52.9403 27.5859 53.4839 28.0336C51.0926 33.5295 45.428 38.1919 37.831 40.292ZM54.4269 25.1019C54.6302 24.1409 54.735 23.1649 54.735 22.1821C54.735 15.1652 49.392 8.49695 41.0038 5.13972C40.5857 10.5513 38.9445 15.3185 36.5609 18.6343C41.5078 18.3115 47.7575 20.2813 53.4631 24.3841C53.7905 24.6196 54.1118 24.8589 54.4269 25.1019ZM38.1806 4.17106C37.9299 8.82586 36.703 12.8972 34.9579 15.8269C32.959 19.1829 30.6044 20.5915 28.5587 20.5915C26.513 20.5915 24.1585 19.1829 22.1595 15.8269C20.4327 12.9278 19.2133 8.91103 18.9451 4.31715C21.9412 3.39704 25.2579 2.88079 28.8079 2.88079C32.1654 2.88079 35.3142 3.34257 38.1806 4.17106ZM16.1295 5.33789C8.01945 8.75461 2.88079 15.3007 2.88079 22.1821C2.88079 23.1469 2.98181 24.1051 3.17786 25.0491C3.47092 24.8242 3.76933 24.6025 4.07297 24.3841C9.61273 20.4006 15.6654 18.4278 20.5405 18.6119C18.1947 15.3377 16.571 10.6555 16.1295 5.33789ZM4.11104 27.9852C6.48369 33.4875 12.1353 38.1608 19.724 40.2751C22.6936 37.6199 24.8393 34.6807 26.0348 31.9314C27.5924 28.3492 27.3614 25.6152 26.1671 23.9544C24.9728 22.2935 22.4545 21.2042 18.5629 21.5406C14.7415 21.8708 10.1305 23.5765 5.75482 26.723C5.18479 27.1329 4.63667 27.5544 4.11104 27.9852Z" fill="#C6A780"/>
</svg>
