<svg width="11" height="16" viewBox="0 0 11 16" fill="none" xmlns="http://www.w3.org/2000/svg">
<path d="M7.29445 3.18568C8.13017 3.18568 8.80765 2.47254 8.80765 1.59284C8.80765 0.71314 8.13017 0 7.29445 0C6.45873 0 5.78125 0.71314 5.78125 1.59284C5.78125 2.47254 6.45873 3.18568 7.29445 3.18568Z" fill="#212B36"/>
<path d="M5.93766 4.12204L2.7577 5.17405C2.33838 5.31276 2.01555 5.66755 1.90193 6.11447L1.58498 7.36123C1.4669 7.8257 1.79942 8.28165 2.25615 8.28165H2.32388C2.63803 8.28165 2.91313 8.05976 2.99478 7.74041L3.3353 6.40906C3.37341 6.25996 3.48304 6.14284 3.62406 6.10043L4.47138 5.84558C4.59065 5.80972 4.70041 5.92703 4.66443 6.05202L3.17787 11.2197C3.1245 11.4053 2.96205 11.5322 2.77785 11.5322H0.868491C0.388818 11.5322 0 11.9415 0 12.4464C0 12.9513 0.388862 13.3606 0.868491 13.3606H3.27927C3.85175 13.3606 4.35513 12.9618 4.51363 12.3828L5.01536 10.5495C5.12249 10.1581 5.63387 10.1169 5.79633 10.4867L7.70359 14.718C7.90416 15.1746 8.42542 15.3637 8.85066 15.1342C9.25513 14.9159 9.42159 14.3988 9.22649 13.9666L6.63916 8.36563C6.61346 8.30871 6.60634 8.24439 6.61897 8.18279L6.7165 7.70633C6.79743 7.31086 7.29983 7.23034 7.48893 7.58251L7.58281 7.75735C7.81068 8.18175 8.23797 8.44419 8.7011 8.44419H10.2676C10.6514 8.44419 10.9624 8.11673 10.9624 7.71283C10.9624 7.30889 10.6513 6.98148 10.2676 6.98148H8.86293C8.7063 6.98148 8.56279 6.88926 8.49119 6.74265L7.56026 4.83579C7.32652 4.35704 6.85809 4.05603 6.34676 4.05603C6.208 4.05594 6.07005 4.07822 5.93766 4.12204Z" fill="#212B36"/>
</svg>
