<svg width="24" height="20" viewBox="0 0 24 20" fill="none" xmlns="http://www.w3.org/2000/svg">
<path d="M21.6 4.53531V2.34944C21.6 1.14394 20.5236 0.163574 19.2 0.163574H3.6C1.6152 0.163574 0 1.63466 0 3.44237V16.5576C0 18.9631 2.1528 19.8364 3.6 19.8364H21.6C22.9236 19.8364 24 18.856 24 17.6505V6.72117C24 5.51567 22.9236 4.53531 21.6 4.53531ZM19.2 14.3717H16.8V9.99997H19.2V14.3717ZM3.6 4.53531C2.9376 4.53531 2.4 4.04458 2.4 3.44237C2.4 2.84017 2.9376 2.34944 3.6 2.34944H19.2V4.53531H3.6Z" fill="white"/>
</svg>
